<svg width="10" height="10" viewBox="0 0 10 10" fill="none" xmlns="http://www.w3.org/2000/svg">
<path d="M5.00005 1.00008C7.20503 1.00008 9.00001 2.79506 9.00001 5.00004C9.00001 7.20502 7.20502 9.00001 5.00004 9.00001C2.79506 9.00001 1.00008 7.20502 1.00008 5.00004C1.00008 2.79506 2.79506 1.00008 5.00005 1.00008ZM5.00005 8.79937e-05C2.24007 8.77524e-05 8.91092e-05 2.24007 8.88679e-05 5.00004C8.86267e-05 7.76002 2.24007 10 5.00004 10C7.76002 10 10 7.76002 10 5.00004C10 2.24007 7.76002 8.8235e-05 5.00005 8.79937e-05ZM5.50004 5.00004L5.50004 3.00006L4.50005 3.00006L4.50005 5.00004L3.00006 5.00004L5.00004 7.00003L7.00003 5.00004L5.50004 5.00004Z" fill="#F0F0F0"/>
</svg>
