<svg width="10" height="10" viewBox="0 0 10 10" fill="none" xmlns="http://www.w3.org/2000/svg">
<path d="M4.99996 8.99992C2.79498 8.99992 0.999991 7.20494 0.999991 4.99996C0.999991 2.79498 2.79498 0.999991 4.99996 0.999991C7.20494 0.999991 8.99992 2.79498 8.99992 4.99996C8.99992 7.20494 7.20494 8.99992 4.99996 8.99992ZM4.99996 9.99991C7.75993 9.99991 9.99991 7.75993 9.99991 4.99996C9.99991 2.23998 7.75993 0 4.99996 0C2.23998 0 0 2.23998 0 4.99996C0 7.75993 2.23998 9.99991 4.99996 9.99991ZM4.49996 4.99996V6.99994H5.49995V4.99996H6.99994L4.99996 2.99997L2.99997 4.99996H4.49996Z" fill="#F0F0F0"/>
</svg>
