<svg width="28" height="33" viewBox="0 0 28 33" fill="none" xmlns="http://www.w3.org/2000/svg">
<path d="M13.2632 33V27.741C5.88 27.3612 0 21.2842 0 13.8778C0 6.22311 6.27789 0 14 0C21.7221 0 28 6.22311 28 13.8778C28 21.1089 22.9305 28.3838 15.3705 31.992L13.2632 33ZM14 2.92165C7.89895 2.92165 2.94737 7.83001 2.94737 13.8778C2.94737 19.9256 7.89895 24.834 14 24.834H16.2105V28.1939C21.5747 24.834 25.0526 19.3121 25.0526 13.8778C25.0526 7.83001 20.1011 2.92165 14 2.92165ZM12.5263 19.7211H15.4737V22.6428H12.5263V19.7211ZM15.4737 17.5299H12.5263C12.5263 12.7822 16.9474 13.1474 16.9474 10.2258C16.9474 8.61886 15.6211 7.30412 14 7.30412C12.3789 7.30412 11.0526 8.61886 11.0526 10.2258H8.10526C8.10526 6.99734 10.7432 4.38247 14 4.38247C17.2568 4.38247 19.8947 6.99734 19.8947 10.2258C19.8947 13.8778 15.4737 14.243 15.4737 17.5299Z" fill="#343434"/>
</svg>
