<svg width="10" height="10" viewBox="0 0 10 10" fill="none" xmlns="http://www.w3.org/2000/svg">
<path d="M5.00003 1.00005C7.20502 1.00005 9.00001 2.79504 9.00001 5.00003C9.00001 7.20501 7.20501 9 5.00003 9C2.79504 9 1.00005 7.20501 1.00005 5.00003C1.00005 2.79504 2.79504 1.00005 5.00003 1.00005ZM5.00003 5.14225e-05C2.24004 5.11812e-05 5.2538e-05 2.24004 5.22967e-05 5.00003C5.20555e-05 7.76001 2.24004 10 5.00003 10C7.76001 10 10 7.76001 10 5.00003C10 2.24004 7.76001 5.16638e-05 5.00003 5.14225e-05ZM5.50002 5.00003L5.50002 3.00004L4.50003 3.00004L4.50003 5.00003L3.00004 5.00003L5.00003 7.00002L7.00002 5.00003L5.50002 5.00003Z" fill="#F0F0F0"/>
</svg>
