<svg width="10" height="10" viewBox="0 0 10 10" fill="none" xmlns="http://www.w3.org/2000/svg">
<path d="M4.99998 0C2.23999 0 0 2.23999 0 4.99998C0 7.75997 2.23999 9.99996 4.99998 9.99996C7.75997 9.99996 9.99996 7.75997 9.99996 4.99998C9.99996 2.23999 7.75997 0 4.99998 0ZM4.99998 8.99996C2.79499 8.99996 0.999996 7.20497 0.999996 4.99998C0.999996 2.79499 2.79499 0.999996 4.99998 0.999996C7.20497 0.999996 8.99996 2.79499 8.99996 4.99998C8.99996 7.20497 7.20497 8.99996 4.99998 8.99996ZM7.29497 2.78999L3.99998 6.08498L2.70499 4.79498L1.99999 5.49998L3.99998 7.49997L7.99997 3.49999L7.29497 2.78999Z" fill="#F0F0F0"/>
</svg>
