<svg width="20" height="22" viewBox="0 0 20 22" fill="none" xmlns="http://www.w3.org/2000/svg">
<path d="M17.7777 2.17391H13.1333C12.6666 0.913042 11.4444 0 9.99998 0C8.55554 0 7.33332 0.913042 6.86665 2.17391H2.22222C0.999998 2.17391 0 3.15217 0 4.34782V19.5652C0 20.7608 0.999998 21.7391 2.22222 21.7391H17.7777C19 21.7391 20 20.7608 20 19.5652V4.34782C20 3.15217 19 2.17391 17.7777 2.17391ZM9.99998 2.17391C10.6111 2.17391 11.1111 2.66304 11.1111 3.26086C11.1111 3.85869 10.6111 4.34782 9.99998 4.34782C9.38887 4.34782 8.88887 3.85869 8.88887 3.26086C8.88887 2.66304 9.38887 2.17391 9.99998 2.17391ZM12.2222 17.3913H4.44443V15.2174H12.2222V17.3913ZM15.5555 13.0434H4.44443V10.8695H15.5555V13.0434ZM15.5555 8.69563H4.44443V6.52172H15.5555V8.69563Z" fill="#024731"/>
</svg>
