<svg width="10" height="10" viewBox="0 0 10 10" fill="none" xmlns="http://www.w3.org/2000/svg">
<path d="M4.99997 8.99995C2.79499 8.99995 0.999995 7.20496 0.999995 4.99997C0.999995 2.79499 2.79499 0.999995 4.99997 0.999995C7.20496 0.999995 8.99995 2.79499 8.99995 4.99997C8.99995 7.20496 7.20496 8.99995 4.99997 8.99995ZM4.99997 9.99995C7.75996 9.99995 9.99995 7.75996 9.99995 4.99997C9.99995 2.23999 7.75996 0 4.99997 0C2.23999 0 0 2.23999 0 4.99997C0 7.75996 2.23999 9.99995 4.99997 9.99995ZM4.49998 4.99997V6.99996H5.49997V4.99997H6.99996L4.99997 2.99998L2.99998 4.99997H4.49998Z" fill="#F0F0F0"/>
</svg>
